<svg height="200px" width="200px" version="1.1" id="Layer_1" xmlns="http://www.w3.org/2000/svg" xmlns:xlink="http://www.w3.org/1999/xlink" viewBox="0 0 512 512" xml:space="preserve" fill="#000000"><g id="SVGRepo_bgCarrier" stroke-width="0"></g><g id="SVGRepo_tracerCarrier" stroke-linecap="round" stroke-linejoin="round"></g><g id="SVGRepo_iconCarrier"> <g> <path style="fill:#f5c211;" d="M454.752,409.519h-0.005v84.591c0,5.978-4.846,10.823-10.823,10.823H68.074 c-5.978,0-10.823-4.846-10.823-10.823v-84.591l20.433-307.039V7.065h356.633v95.415L454.752,409.519z"></path> <path style="fill:#e5a50a;" d="M61.182,7.065h389.636c5.978,0,10.823,4.846,10.823,10.823v73.768 c0,5.978-4.846,10.823-10.823,10.823h-64.939H294.62h-77.244h-37.139H61.182c-5.978,0-10.823-4.846-10.823-10.823V17.889 C50.358,11.911,55.205,7.065,61.182,7.065z"></path> <path style="fill:#f6d32d;" d="M461.641,50.358v41.298c0,5.978-4.846,10.823-10.823,10.823h-64.939H294.62h-77.244h-37.139H61.182 c-5.978,0-10.823-4.846-10.823-10.823V50.358H461.641z"></path> <path style="fill:#deddda;" d="M299.292,113.133c0,23.91-19.383,43.293-43.293,43.293c-23.91,0-43.293-19.383-43.293-43.293 S232.09,69.84,255.999,69.84C279.909,69.84,299.292,89.223,299.292,113.133z"></path> <path style="fill:#9a9996;" d="M299.292,113.133c0,23.91-19.383,43.293-43.293,43.293V69.84 C279.91,69.84,299.292,89.223,299.292,113.133z"></path> </g> <circle style="fill:#deddda;" cx="256.002" cy="319.209" r="26.362"></circle> <path d="M452.937,512H59.059c-4.782,0-8.659-3.877-8.659-8.659v-94.804c0-0.192,0.006-0.383,0.018-0.573l19.634-295.844H52.231 c-4.782,0-8.659-3.877-8.659-8.659V8.659C43.572,3.877,47.449,0,52.231,0h407.539c4.782,0,8.659,3.877,8.659,8.659v94.804 c0,4.782-3.877,8.659-8.659,8.659h-17.824l19.637,295.843c0.019,0.294,0.024,0.586,0.014,0.877v94.502 C461.595,508.123,457.718,512,452.937,512z M67.718,494.683h376.56v-85.939l-19.687-296.622H304.055 c0.003,0.25,0.005,0.499,0.005,0.748c0,26.502-21.561,48.063-48.063,48.063c-26.5,0-48.058-21.561-48.058-48.063 c0-0.249,0.002-0.499,0.006-0.748H87.409L67.718,408.823V494.683z M226.169,105.398c-0.01,0.042-0.021,0.084-0.029,0.126 c-0.587,2.393-0.883,4.864-0.883,7.347c0,16.953,13.79,30.746,30.741,30.746c16.953,0,30.746-13.792,30.746-30.746 c0-2.48-0.297-4.952-0.884-7.347c-0.011-0.043-0.022-0.087-0.03-0.13c-3.423-13.707-15.671-23.267-29.831-23.267 C241.836,82.127,229.59,91.689,226.169,105.398z M300.552,94.804H451.11V17.317H60.889v77.487h150.555 c7.243-17.957,24.695-29.994,44.553-29.994C275.855,64.809,293.309,76.847,300.552,94.804z M255.996,417.118 c-4.782,0-8.659-3.877-8.659-8.659v-16.907c0-4.782,3.877-8.659,8.659-8.659c4.782,0,8.659,3.877,8.659,8.659v16.907 C264.655,413.241,260.778,417.118,255.996,417.118z M319.298,390.899c-2.217,0-4.432-0.845-6.123-2.537l-11.955-11.956 c-3.381-3.381-3.381-8.863,0.001-12.244c3.381-3.38,8.863-3.379,12.244,0.001l11.955,11.956c3.381,3.381,3.381,8.863-0.001,12.244 C323.729,390.054,321.513,390.899,319.298,390.899z M192.702,390.899c-2.217,0-4.432-0.845-6.122-2.536 c-3.382-3.381-3.382-8.863-0.001-12.244l11.955-11.956c3.384-3.382,8.866-3.379,12.245-0.001c3.382,3.381,3.382,8.863,0.001,12.244 l-11.955,11.956C197.134,390.054,194.918,390.899,192.702,390.899z M255.996,353.799c-19.218,0-34.852-15.636-34.852-34.857 c0-19.22,15.634-34.855,34.852-34.855c19.222,0,34.861,15.635,34.861,34.855C290.857,338.162,275.218,353.799,255.996,353.799z M255.996,301.403c-9.669,0-17.535,7.868-17.535,17.538c0,9.672,7.866,17.54,17.535,17.54c9.674,0,17.543-7.87,17.543-17.54 C273.54,309.271,265.67,301.403,255.996,301.403z M345.515,327.6h-16.907c-4.782,0-8.659-3.877-8.659-8.659 c0-4.782,3.877-8.659,8.659-8.659h16.907c4.782,0,8.659,3.877,8.659,8.659C354.174,323.724,350.297,327.6,345.515,327.6z M183.391,327.6h-16.907c-4.782,0-8.659-3.877-8.659-8.659c0-4.782,3.877-8.659,8.659-8.659h16.907c4.782,0,8.659,3.877,8.659,8.659 C192.049,323.724,188.173,327.6,183.391,327.6z M307.343,276.258c-2.217,0-4.432-0.845-6.123-2.536 c-3.381-3.382-3.381-8.863,0-12.245l11.955-11.955c3.382-3.38,8.863-3.38,12.245,0c3.381,3.382,3.381,8.864,0,12.246l-11.955,11.955 C311.774,275.413,309.559,276.258,307.343,276.258z M204.657,276.258c-2.217,0-4.432-0.845-6.123-2.536l-11.955-11.955 c-3.381-3.382-3.381-8.864,0-12.246c3.382-3.38,8.863-3.38,12.245,0l11.955,11.955c3.381,3.382,3.381,8.863,0,12.245 C209.089,275.413,206.874,276.258,204.657,276.258z M255.996,254.993c-4.782,0-8.659-3.877-8.659-8.659v-16.908 c0-4.782,3.877-8.659,8.659-8.659c4.782,0,8.659,3.877,8.659,8.659v16.908C264.655,251.116,260.778,254.993,255.996,254.993z"></path> </g></svg>