<svg height="200px" width="200px" version="1.1" id="Layer_1" xmlns="http://www.w3.org/2000/svg" xmlns:xlink="http://www.w3.org/1999/xlink" viewBox="0 0 512 512" xml:space="preserve" fill="#000000"><g id="SVGRepo_bgCarrier" stroke-width="0"></g><g id="SVGRepo_tracerCarrier" stroke-linecap="round" stroke-linejoin="round"></g><g id="SVGRepo_iconCarrier"> <g> <path style="fill:#63452c;" d="M350.171,175.024h-45.371v127.008c0,9.425-1.432,18.796-4.246,27.791l-0.061,0.196 c-5.738,18.34-8.656,37.444-8.656,56.66v123.46c0,1.028,0.833,1.86,1.86,1.86h44.933c6.153,0,10.936-5.354,10.246-11.467 l-11.668-103.383c0-19.216,2.918-38.32,8.656-56.66l0.061-0.197c2.815-8.995,4.245-18.366,4.245-27.79V175.024H350.171z"></path> <path style="fill:#63452c;" d="M350.171,55.991h-45.371V9.595c0-2.866,2.324-5.19,5.19-5.19h34.991c2.866,0,5.19,2.324,5.19,5.19 L350.171,55.991L350.171,55.991z"></path> </g> <g> <path style="fill:#187a1b;" d="M291.837,447.141c6.892-18.202,19.698-39.345,43.224-49.312c0.706-0.3,1.434-0.488,2.159-0.571 l1.786,15.832c-34.283,16.433-39.386,66.686-39.434,67.201c-0.377,4.026-3.763,7.049-7.728,7.049L291.837,447.141z"></path> <path style="fill:#187a1b;" d="M291.932,380.666c0,0,13.044-27.297,24.141-36.411c14.945-12.273,24.13-55.706,26.408-71.406 c0.561-3.871,3.888-6.662,7.69-6.657v44.085c-5.077,17.465-12.905,36.678-24.237,45.985c-16.97,13.937-25.773,47.231-26.332,53.198 c-0.12,4.186-3.551,7.542-7.766,7.542L291.932,380.666z M299.607,409.235c0,0.053-0.001,0.106-0.002,0.156 C299.607,409.333,299.607,409.28,299.607,409.235z"></path> <path style="fill:#187a1b;" d="M304.801,244.974c7.136-18.12,20.29-39.324,43.606-44.769c0.591-0.139,1.184-0.205,1.766-0.205 l-0.001,15.803c-30.076,8.846-37.608,58.756-37.681,59.269c-0.557,3.871-3.879,6.663-7.679,6.663L304.801,244.974z"></path> </g> <path style="opacity:0.2;enable-background:new ;" d="M345.186,4.405h-17.701c2.866,0,5.19,2.324,5.19,5.19V55.99h17.701V9.595 C350.377,6.728,348.053,4.405,345.186,4.405z"></path> <path style="fill:#241f31;" d="M357.079,117.145V52.062h-62.458v23.722L203.947,0c-65.367,65.367-65.367,171.347,0,236.713 l90.674-75.784v23.186h62.458v-64.547V117.145z"></path> <path style="fill:#486c39;" d="M229.894,30.198l4.25-4.959L203.947,0c-65.367,65.367-65.367,171.347,0,236.713l25.81-21.571 C187.768,160.811,187.812,84.479,229.894,30.198z"></path> <g style="opacity:0.48;"> <path style="fill:#3E3B43;" d="M271.53,100.058c-1.769,0-3.549-0.601-5.007-1.833l-31.07-26.22 c-3.28-2.767-3.694-7.669-0.927-10.947c2.767-3.279,7.67-3.694,10.947-0.927l31.07,26.221c3.28,2.767,3.694,7.669,0.927,10.947 C275.935,99.121,273.74,100.058,271.53,100.058z"></path> </g> <g style="opacity:0.48;"> <polygon style="fill:#3E3B43;" points="332.123,52.062 332.123,184.115 357.079,184.115 357.079,119.569 357.079,117.145 357.079,52.062 "></polygon> </g> <path style="opacity:0.2;enable-background:new ;" d="M350.171,206.773V200l0,0v-15.885h-17.701V200l0,0v6.773v59.421l0,0v44.085 l0,0v2.223c0,9.425-1.432,18.796-4.246,27.79l-0.061,0.197c-5.737,18.34-8.656,37.444-8.656,56.66l0.012,0.109l0,0l1.223,10.843 l10.433,92.431c0.69,6.114-4.094,11.469-10.246,11.469h17.701c6.153,0,10.936-5.354,10.246-11.469L338.444,408.1l-1.223-10.843l0,0 l-0.012-0.109c0-19.216,2.919-38.32,8.656-56.66l0.061-0.197c2.815-8.995,4.246-18.366,4.246-27.79v-2.223l0,0v-44.085l0,0V206.773z "></path> </g></svg>