<svg version="1.1" id="Capa_1" xmlns="http://www.w3.org/2000/svg" xmlns:xlink="http://www.w3.org/1999/xlink" viewBox="0 0 58 58" xml:space="preserve" fill="#000000"><g id="SVGRepo_bgCarrier" stroke-width="0"></g><g id="SVGRepo_tracerCarrier" stroke-linecap="round" stroke-linejoin="round"></g><g id="SVGRepo_iconCarrier"> <g> <rect x="10" y="10" style="fill:#f6f5f4;" width="38" height="38"></rect> <rect x="10" y="0" style="fill:#986a44;" width="48" height="10"></rect> <rect x="48" y="10" style="fill:#cdab8f;" width="10" height="48"></rect> <rect x="0" y="48" style="fill:#986a44;" width="48" height="10"></rect> <rect x="0" y="0" style="fill:#cdab8f;" width="10" height="48"></rect> <g> <circle style="fill:#E6E7E8;" cx="54" cy="3" r="1"></circle> <circle style="fill:#E6E7E8;" cx="50" cy="3" r="1"></circle> <circle style="fill:#E6E7E8;" cx="54" cy="7" r="1"></circle> <circle style="fill:#E6E7E8;" cx="50" cy="7" r="1"></circle> <circle style="fill:#E6E7E8;" cx="55" cy="54" r="1"></circle> <circle style="fill:#E6E7E8;" cx="55" cy="50" r="1"></circle> <circle style="fill:#E6E7E8;" cx="51" cy="54" r="1"></circle> <circle style="fill:#E6E7E8;" cx="51" cy="50" r="1"></circle> <circle style="fill:#E6E7E8;" cx="4" cy="55" r="1"></circle> <circle style="fill:#E6E7E8;" cx="8" cy="55" r="1"></circle> <circle style="fill:#E6E7E8;" cx="4" cy="51" r="1"></circle> <circle style="fill:#E6E7E8;" cx="8" cy="51" r="1"></circle> <circle style="fill:#E6E7E8;" cx="3" cy="4" r="1"></circle> <circle style="fill:#E6E7E8;" cx="3" cy="8" r="1"></circle> <circle style="fill:#E6E7E8;" cx="7" cy="4" r="1"></circle> <circle style="fill:#E6E7E8;" cx="7" cy="8" r="1"></circle> </g> <polygon style="fill:#9a9996;" points="38.459,48 48,38.459 48,27.146 27.146,48 "></polygon> <polygon style="fill:#9a9996;" points="48,15.832 48,10 42.518,10 10,42.518 10,48 15.832,48 "></polygon> <polygon style="fill:#9a9996;" points="10,31.205 31.205,10 19.891,10 10,19.891 "></polygon> </g> </g></svg>